<?xml version="1.0" encoding="iso-8859-1"?>
<!-- Generator: Adobe Illustrator 19.0.0, SVG Export Plug-In . SVG Version: 6.00 Build 0)  -->
<svg version="1.1" id="Layer_1" xmlns="http://www.w3.org/2000/svg" xmlns:xlink="http://www.w3.org/1999/xlink" x="0px" y="0px"
	 viewBox="0 0 512 512" style="enable-background:new 0 0 512 512;" xml:space="preserve">
<g>
	<path style="fill:#FF5023;" d="M445.173,441.966h48.151c10.314,0,18.675-8.361,18.675-18.675v-34.65v-265.28v-34.65
		c0-10.314-8.361-18.675-18.675-18.675h-48.151L445.173,441.966L445.173,441.966z"/>
	<path style="fill:#FF5023;" d="M376.087,388.641c1.8,0,0-265.279,0-265.279l-56.709-18.959v299.755h47.72L376.087,388.641z"/>
</g>
<path style="fill:#3C66B1;" d="M92.828,441.966h44.126c59.177,0,107.097-48.191,106.658-107.469
	c-0.23-31.128-14.001-58.955-35.63-78.257c22.045-19.699,35.867-48.406,35.63-80.351c-0.436-58.811-49.184-105.852-107.996-105.852
	H92.828l59.484,63.042l15.909,57.46l-22.384,38.846l-24.279,31.563l42.084,49.367l-4.855,33.991l-28.325,54.223L92.828,441.966z"/>
<path style="fill:#52A2E7;" d="M21.138,70.036H1.35c-0.745,0-1.35,0.605-1.35,1.35v52.574c0,0.745,0.605,1.35,1.35,1.35h87.232
	c28.813,0,52.942,23.58,52.391,52.388c-0.534,27.917-23.331,50.383-51.377,50.383H40.125c-0.745,0-1.35,0.605-1.35,1.35v52.574
	c0,0.374,0.152,0.712,0.398,0.957c0.171,0.549,0.665,0.956,1.271,0.956h48.139c28.813,0,52.942,23.58,52.391,52.388
	c-0.534,27.917-23.331,50.384-51.377,50.384H41.304H2.64c-0.745,0-1.35,0.605-1.35,1.35v52.574c0,0.745,0.605,1.35,1.35,1.35h86.957
	c59.177,0,107.097-48.191,106.658-107.469c-0.23-31.128-14.001-58.955-35.63-78.257c22.045-19.699,35.867-48.406,35.63-80.351
	C195.82,117.075,147.071,70.034,88.259,70.034H70.492H21.138V70.036z"/>
<path style="fill:#FF7956;" d="M338.02,70.036h-48.562v53.325V388.64v53.325l0,0h53.325l0,0h75.374h34.651
	c10.314,0,18.675-8.361,18.675-18.675v-34.65V123.361v-34.65c0-10.314-8.361-18.675-18.675-18.675h-68.329
	C384.479,70.036,338.02,70.036,338.02,70.036z M342.784,150.795v-27.434h56.699c10.314,0,18.675,8.361,18.675,18.675V388.64h-75.374
	V200.135V150.795z"/>
<path style="fill:#ACD4F3;" d="M160.625,256.862c22.045-19.699,35.867-48.406,35.63-80.351
	c-0.194-26.188-9.973-50.035-25.949-68.441l-52.479,26.755c14.133,9.428,23.492,25.433,23.147,43.497
	c-0.534,27.917-23.331,50.384-51.377,50.384H40.125c-0.745,0-1.35,0.605-1.35,1.35v52.574c0,0.374,0.152,0.712,0.398,0.957
	c0.171,0.549,0.665,0.956,1.271,0.956h48.139c12.83,0,24.722,4.683,33.929,12.413l51.226-26.117
	C169.79,265.802,165.4,261.123,160.625,256.862z"/>
<g>
	<polygon style="fill:#FFBCAB;" points="289.458,234.245 289.458,374.555 342.784,343.768 342.784,203.457 	"/>
	<polygon style="fill:#FFBCAB;" points="471.483,129.152 418.158,159.94 418.158,300.251 471.483,269.463 	"/>
</g>
<g>
</g>
<g>
</g>
<g>
</g>
<g>
</g>
<g>
</g>
<g>
</g>
<g>
</g>
<g>
</g>
<g>
</g>
<g>
</g>
<g>
</g>
<g>
</g>
<g>
</g>
<g>
</g>
<g>
</g>
</svg>
